<svg xmlns="http://www.w3.org/2000/svg" width="128" height="108" viewBox="0 0 128 108"><path d="M64 5.9c1.3 0 2.4-.9 2.7-2.1H79c-3.6 2-6.1 5.8-6.4 10.1h-1.2c-.4 0-.8.3-.8.8v3.6c0 .4.3.8.8.8H75c.4 0 .8-.3.8-.8v-3.6c0-.4-.3-.8-.8-.8h-.9c.3-4.8 3.8-8.9 8.6-9.9v.8c0 .4.3.8.8.8H87c.4 0 .8-.3.8-.8V4c4.7 1 8.2 5.1 8.5 9.9h-.9c-.4 0-.8.3-.8.8v3.6c0 .4.3.8.8.8H99c.4 0 .8-.3.8-.8v-3.6c0-.4-.3-.8-.8-.8h-1.2c-.3-4.3-2.7-8.1-6.4-10.1h12.3a2.795 2.795 0 0 0 5.5-.7 2.795 2.795 0 0 0-5.5-.7h-16v-1c0-.4-.3-.8-.8-.8h-3.6c-.4 0-.8.3-.8.8v1h-16a2.795 2.795 0 0 0-5.5.7c.2 1.6 1.4 2.8 3 2.8zm10.3 11.6h-2.1v-2.1h2.1v2.1zm24 0h-2.1v-2.1h2.1v2.1zm8.2-15.7c.7 0 1.3.6 1.3 1.3 0 .7-.6 1.3-1.3 1.3-.7 0-1.3-.6-1.3-1.3-.1-.7.5-1.3 1.3-1.3zm-22.3.3h2.1v2.1h-2.1V2.1zM64 1.8c.7 0 1.3.6 1.3 1.3 0 .7-.6 1.3-1.3 1.3-.7 0-1.3-.6-1.3-1.3 0-.7.6-1.3 1.3-1.3zM7.9 64.1c0-.4-.3-.8-.8-.8-.4 0-.8.3-.8.8v13.2c0 .4.3.8.8.8.4 0 .8-.3.8-.8V64.1zm-.8 16.8c-.4 0-.8.3-.8.8V86c0 .4.3.8.8.8.4 0 .8-.3.8-.8v-4.3c0-.5-.4-.8-.8-.8zm113-65.2c.4 0 .8-.3.8-.8V1.8c0-.4-.3-.8-.8-.8s-.8.3-.8.8V15c0 .4.3.7.8.7zm0 8.7c.4 0 .8-.3.8-.8v-4.3c0-.4-.3-.8-.8-.8s-.8.3-.8.8v4.3c0 .4.3.8.8.8zM1.8 44.6c-.3-.3-.8-.3-1.1 0-.3.3-.3.8 0 1.1L2.1 47c.1.1.3.2.5.2s.4-.1.5-.2c.3-.3.3-.8 0-1.1l-1.3-1.3zm3.4 5.5l1.4 1.4c.1.1.3.2.5.2s.4-.1.5-.2c.3-.3.3-.8 0-1.1L6.3 49c-.3-.3-.8-.3-1.1 0-.3.3-.3.8 0 1.1zM2.1 49L.7 50.4c-.3.3-.3.8 0 1.1.1.1.3.2.5.2s.4-.1.5-.2l1.4-1.4c.3-.3.3-.8 0-1.1-.2-.2-.7-.2-1 0zm3.6-1.8c.2 0 .4-.1.5-.2l1.4-1.4c.3-.3.3-.8 0-1.1-.3-.3-.8-.3-1.1 0l-1.4 1.4c-.3.3-.3.8 0 1.1.3.2.4.2.6.2zm44.1 51.4c-.3-.3-.8-.3-1.1 0-.3.3-.3.8 0 1.1l1.4 1.4c.1.1.3.2.5.2s.4-.1.5-.2c.3-.3.3-.8 0-1.1l-1.3-1.4zm4.5 4.5c-.3-.3-.8-.3-1.1 0-.3.3-.3.8 0 1.1l1.4 1.4c.1.1.3.2.5.2s.4-.1.5-.2c.3-.3.3-.8 0-1.1l-1.3-1.4zm-4.2 0l-1.4 1.4c-.3.3-.3.8 0 1.1.1.1.3.2.5.2s.4-.1.5-.2l1.4-1.4c.3-.3.3-.8 0-1.1-.2-.3-.7-.3-1 0zm4.5-4.5l-1.4 1.4c-.3.3-.3.8 0 1.1.1.1.3.2.5.2s.4-.1.5-.2l1.4-1.4c.3-.3.3-.8 0-1.1-.2-.3-.7-.3-1 0zm65.7-58l1.4 1.4c.1.1.3.2.5.2s.4-.1.5-.2c.3-.3.3-.8 0-1.1l-1.4-1.4c-.3-.3-.8-.3-1.1 0-.2.3-.2.8.1 1.1zm5.6 3.4c-.3-.3-.8-.3-1.1 0-.3.3-.3.8 0 1.1l1.4 1.4c.1.1.3.2.5.2s.4-.1.5-.2c.3-.3.3-.8 0-1.1l-1.3-1.4zm-4.2 0l-1.4 1.4c-.3.3-.3.8 0 1.1.1.1.3.2.5.2s.4-.1.5-.2l1.4-1.4c.3-.3.3-.8 0-1.1-.2-.3-.7-.3-1 0zm3.7-1.8c.2 0 .4-.1.5-.2l1.4-1.4c.3-.3.3-.8 0-1.1-.3-.3-.8-.3-1.1 0l-1.4 1.4c-.3.3-.3.8 0 1.1.2.2.4.2.6.2zM75 97c-2.1 0-3.8 1.7-3.8 3.8 0 2.1 1.7 3.8 3.8 3.8 2.1 0 3.8-1.7 3.8-3.8.1-2-1.7-3.8-3.8-3.8zm0 6.2c-1.3 0-2.3-1-2.3-2.3 0-1.3 1-2.3 2.3-2.3 1.3 0 2.3 1 2.3 2.3 0 1.3-1 2.3-2.3 2.3zM45.1 26.7c0 2.1 1.7 3.8 3.8 3.8 2.1 0 3.8-1.7 3.8-3.8 0-2.1-1.7-3.8-3.8-3.8-2.1 0-3.8 1.7-3.8 3.8zm6.1 0c0 1.3-1 2.3-2.3 2.3-1.3 0-2.3-1-2.3-2.3 0-1.3 1-2.3 2.3-2.3 1.3 0 2.3 1 2.3 2.3zM29.4 104H15.1c-.4 0-.8.3-.8.8 0 .4.3.8.8.8h14.3c.4 0 .8-.3.8-.8-.1-.5-.4-.8-.8-.8zm-19 0H5.7c-.4 0-.8.3-.8.8 0 .4.3.8.8.8h4.6c.4 0 .8-.3.8-.8s-.3-.8-.7-.8zm-4.7-3.4h10c.4 0 .8-.3.8-.8 0-.4-.3-.8-.8-.8h-10c-.4 0-.8.3-.8.8.1.4.4.8.8.8zm17.5 0c.4 0 .8-.3.8-.8 0-.4-.3-.8-.8-.8H20c-.4 0-.8.3-.8.8 0 .4.3.8.8.8h3.2zm85.6 1.5c0-.4-.3-.8-.8-.8H93.7c-.4 0-.8.3-.8.8 0 .4.3.8.8.8H108c.5-.1.8-.4.8-.8zm8.6-.8h-4.6c-.4 0-.8.3-.8.8 0 .4.3.8.8.8h4.6c.4 0 .8-.3.8-.8-.1-.5-.4-.8-.8-.8zm0 4.9h-10c-.4 0-.8.3-.8.8 0 .4.3.8.8.8h10c.4 0 .8-.3.8-.8-.1-.4-.4-.8-.8-.8zm-14.3 0h-3.2c-.4 0-.8.3-.8.8 0 .4.3.8.8.8h3.2c.4 0 .8-.3.8-.8 0-.4-.4-.8-.8-.8zM38 15.1c0 .4.3.8.8.8H53c.4 0 .8-.3.8-.8 0-.4-.3-.8-.8-.8H38.7c-.4.1-.7.4-.7.8zm-8.6.8H34c.4 0 .8-.3.8-.8 0-.4-.3-.8-.8-.8h-4.6c-.4 0-.8.3-.8.8s.4.8.8.8zm0-4.9h10c.4 0 .8-.3.8-.8 0-.4-.3-.8-.8-.8h-10c-.4 0-.8.3-.8.8 0 .4.4.8.8.8zm14.3 0h3.2c.4 0 .8-.3.8-.8 0-.4-.3-.8-.8-.8h-3.2c-.4 0-.8.3-.8.8 0 .4.4.8.8.8zM28.8 51.4c-.6 0-1.2.2-1.7.7-.5.5-.7 1.1-.7 1.7 0 .4.3.8.8.8.4 0 .8-.3.8-.8 0-.2.1-.5.3-.6.2-.2.4-.3.6-.3.4 0 .8-.3.8-.8-.1-.4-.5-.7-.9-.7zM82 52.9c.2 0 .5.1.6.3.2.2.3.4.3.6 0 .4.3.8.8.8.4 0 .8-.3.8-.8 0-.6-.2-1.2-.7-1.7-.5-.5-1.1-.7-1.7-.7-.4 0-.8.3-.8.8 0 .3.3.7.7.7zm0 28.9c.6 0 1.2-.2 1.7-.7.5-.5.7-1.1.7-1.7 0-.4-.3-.8-.8-.8-.4 0-.8.3-.8.8 0 .2-.1.5-.3.6-.2.2-.4.3-.6.3-.4 0-.8.3-.8.8.2.3.5.7.9.7zm-53.2-1.5c-.2 0-.5-.1-.6-.3-.2-.2-.3-.4-.3-.6 0-.4-.3-.8-.8-.8-.4 0-.8.3-.8.8 0 .6.2 1.2.7 1.7.5.5 1.1.7 1.7.7.4 0 .8-.3.8-.8s-.3-.7-.7-.7zm77.8-33h-11c-.4 0-.8.3-.8.8v3.5c0 .4.3.8.8.8h11c.4 0 .8-.3.8-.8V48c0-.4-.4-.7-.8-.7zm-.7 3.4h-9.5v-2h9.5v2zm.7 3.2h-11c-.4 0-.8.3-.8.8v3.5c0 .4.3.8.8.8h11c.4 0 .8-.3.8-.8v-3.5c0-.4-.4-.8-.8-.8zm-.7 3.5h-9.5v-2h9.5v2zm.7 16.9h-11c-.4 0-.8.3-.8.8v3.5c0 .4.3.8.8.8h11c.4 0 .8-.3.8-.8V75c0-.4-.4-.7-.8-.7zm-.7 3.4h-9.5v-2h9.5v2zm.7 3.2h-11c-.4 0-.8.3-.8.8v3.5c0 .4.3.8.8.8h11c.4 0 .8-.3.8-.8v-3.5c0-.5-.4-.8-.8-.8zm-.7 3.5h-9.5v-2h9.5v2zm.4-17.8c0-2.9-2.3-5.2-5.2-5.2-2.9 0-5.2 2.3-5.2 5.2 0 2.9 2.3 5.2 5.2 5.2 2.9 0 5.2-2.4 5.2-5.2zm-8.9 0c0-2 1.7-3.7 3.7-3.7s3.7 1.7 3.7 3.7-1.7 3.7-3.7 3.7-3.7-1.7-3.7-3.7z"/><path d="M126.8 61.8c-1.1-2.7-2.3-5.6-5-5.6-2.6 0-3.8 2.8-4.9 5.6-.8 2-1.6 3.9-2.8 4.5V42.7c0-1.8-1.5-3.3-3.3-3.3H92.2l-.3-2.1-.2-1c-.2-.9-.3-1.8-.5-2.7.5-.4.8-1 .8-1.6 0-.7-.3-1.2-.8-1.6l3.3-5.9c.1-.2.1-.5 0-.7 0-.1-.1-.1-.1-.2-4.4-4.9-7.1-11.5-8.3-15v-.1c0-.1-.1-.1-.1-.2l-.1-.1s-.1-.1-.2-.1h-.1c-.1 0-.2-.1-.3-.1-.1 0-.2 0-.3.1h-.1c-.1 0-.1.1-.2.1l-.1.1s-.1.1-.1.2v.1c-1.2 3.5-3.8 10-8.3 14.9-.1.1-.1.1-.1.2-.1.2-.1.5 0 .7l3.3 5.9c-.5.4-.8 1-.8 1.6 0 .7.3 1.2.8 1.6-.2.9-.3 1.8-.5 2.7l-.2 1-.3 2.1H34.8L11.2 15.8l-2.6-2.6c-.8-.8-1.8-1.2-2.9-1.2-1.1 0-2.1.4-2.9 1.2-1.6 1.6-1.6 4.2 0 5.7l20.5 20.5h-4.4c-1.8 0-3.3 1.5-3.3 3.3v47.8c0 1.8 1.5 3.3 3.3 3.3h91.9c1.8 0 3.3-1.5 3.3-3.3V67.9c2.1-.5 3.2-3 4.2-5.5 1-2.4 1.9-4.7 3.6-4.7 1.6 0 2.6 2.3 3.6 4.7.2.5.4 1 .6 1.4.2.4.6.6 1 .4.4-.2.6-.6.4-1-.3-.4-.5-.9-.7-1.4zM80.2 31.9c0-.4.3-.7.7-.7h8.9c.4 0 .7.3.7.7 0 .4-.3.7-.7.7h-8.9c-.4 0-.7-.3-.7-.7zm5.1-11.7c.6 0 1.1.5 1.1 1.1 0 .6-.5 1.1-1.1 1.1-.6 0-1.1-.5-1.1-1.1 0-.7.5-1.1 1.1-1.1zm-.8-7.4v6c-1.1.3-1.8 1.3-1.8 2.5 0 1.4 1.2 2.6 2.6 2.6 1.4 0 2.6-1.2 2.6-2.6 0-1.2-.8-2.1-1.8-2.5v-6c1.5 3.4 3.7 7.7 6.8 11.3l-3.1 5.7H81l-3.1-5.7c2.9-3.6 5.2-7.9 6.6-11.3zm-4.3 24.7l.2-1c.1-.8.3-1.6.4-2.4h8.9c.2.8.3 1.6.4 2.4l.2 1 .3 1.8H79.9l.3-1.8zm-36 11.3H85c1 0 1.8.8 1.8 1.8v31.9c0 1-.8 1.8-1.8 1.8H25.8c-1 0-1.8-.8-1.8-1.8V50.6c0-1 .8-1.8 1.8-1.8h6.9l11 11s.1 0 .1.1l.3.3 7.3 2.8v12.6c0 2.4 1.9 4.3 4.3 4.3S60 78 60 75.6v-4.9c0-1.5 1.2-2.8 2.8-2.8 1.6 0 2.8 1.2 2.8 2.8v5c0 2.4 1.9 4.3 4.3 4.3s4.3-1.9 4.3-4.3V73c0-.4-.3-.8-.8-.8-.4 0-.8.3-.8.8v2.5c0 1.5-1.2 2.8-2.8 2.8-1.6 0-2.8-1.3-2.8-2.8v-5c0-2.4-1.9-4.3-4.3-4.3s-4.3 1.9-4.3 4.3v4.9c0 1.5-1.2 2.8-2.8 2.8-1.5 0-2.8-1.2-2.8-2.8V62.7c0-.2-.1-.4-.2-.5v-.1l-2.9-7.6c-.1-.1-.1-.2-.3-.3 0 0 0-.1-.1-.1l-5.1-5.3zm-10.3-8.2l7.9 7.9 6 6-3.6 3.6-10.6-10.6-7.9-7.9L7.1 21l3.6-3.6 23.2 23.2zm14.8 15.2l2 5.2-5.2-2 3.2-3.2zM3.9 14.2c.5-.5 1.1-.8 1.8-.8s1.3.3 1.8.8l2.1 2.1L6 19.9l-2.1-2.1c-1-1-1-2.6 0-3.6zm106.9 78.1H18.9c-1 0-1.8-.8-1.8-1.8V42.7c0-1 .8-1.8 1.8-1.8h5.9l6.4 6.4h-5.4c-1.8 0-3.3 1.5-3.3 3.3v31.9c0 1.8 1.5 3.3 3.3 3.3H85c1.8 0 3.3-1.5 3.3-3.3V50.6c0-1.8-1.5-3.3-3.3-3.3H42.7l-6.4-6.4h74.5c1 0 1.8.8 1.8 1.8v47.8c0 1-.8 1.8-1.8 1.8z"/></svg>