<svg xmlns="http://www.w3.org/2000/svg" width="120" height="128" viewBox="0 0 120 128"><path d="M90.6 82.3c3.1 0 5.6-2.5 5.6-5.6 0-3.1-2.5-5.6-5.6-5.6-3.1 0-5.6 2.5-5.6 5.6 0 3.1 2.5 5.6 5.6 5.6zm0-9.7c2.3 0 4.1 1.8 4.1 4.1s-1.8 4.1-4.1 4.1-4.1-1.8-4.1-4.1 1.8-4.1 4.1-4.1zm-56.4 9.7c3.1 0 5.6-2.5 5.6-5.6 0-3.1-2.5-5.6-5.6-5.6-3.1 0-5.6 2.5-5.6 5.6 0 3.1 2.5 5.6 5.6 5.6zm0-9.7c2.3 0 4.1 1.8 4.1 4.1s-1.8 4.1-4.1 4.1-4.1-1.8-4.1-4.1 1.8-4.1 4.1-4.1zm-31 6.9c-.4 0-.8.3-.8.8v13.3c0 .4.3.8.8.8.4 0 .8-.3.8-.8V80.3c-.1-.4-.4-.8-.8-.8zm0 17.8c-.4 0-.8.3-.8.8v4.3c0 .4.3.8.8.8.4 0 .8-.3.8-.8V98c-.1-.4-.4-.7-.8-.7zm64.7-69l1.7 1.7c.1.1.3.2.5.2s.4-.1.5-.2c.3-.3.3-.8 0-1.1L69 27.2c-.3-.3-.8-.3-1.1 0-.3.3-.3.8 0 1.1zm7.4 7.4c.1.1.3.2.5.2s.4-.1.5-.2c.3-.3.3-.8 0-1.1l-1.7-1.7c-.3-.3-.8-.3-1.1 0-.3.3-.3.8 0 1.1l1.8 1.7zm-5.6-2.8L68 34.6c-.3.3-.3.8 0 1.1.1.1.3.2.5.2s.4-.1.5-.2l1.7-1.7c.3-.3.3-.8 0-1.1-.3-.3-.7-.3-1 0zm4.4-2.6c.2 0 .4-.1.5-.2l1.7-1.7c.3-.3.3-.8 0-1.1-.3-.3-.8-.3-1.1 0L73.6 29c-.3.3-.3.8 0 1.1.1.1.3.2.5.2zm37.8 82.7c-.3-.3-.8-.3-1.1 0-.3.3-.3.8 0 1.1l1.7 1.7c.1.1.3.2.5.2s.4-.1.5-.2c.3-.3.3-.8 0-1.1l-1.6-1.7zm5.6 5.6c-.3-.3-.8-.3-1.1 0-.3.3-.3.8 0 1.1l1.7 1.7c.1.1.3.2.5.2s.4-.1.5-.2c.3-.3.3-.8 0-1.1l-1.6-1.7zm-5 0l-1.7 1.7c-.3.3-.3.8 0 1.1.1.1.3.2.5.2s.4-.1.5-.2l1.7-1.7c.3-.3.3-.8 0-1.1-.2-.3-.7-.3-1 0zm5.7-5.6l-1.7 1.7c-.3.3-.3.8 0 1.1.1.1.3.2.5.2s.4-.1.5-.2l1.7-1.7c.3-.3.3-.8 0-1.1-.3-.3-.8-.3-1 0zM16.7 95.9c-.3-.3-.8-.3-1.1 0-.3.3-.3.8 0 1.1l1.7 1.7c.1.1.3.2.5.2s.4-.1.5-.2c.3-.3.3-.8 0-1.1l-1.6-1.7zm6.8 8.7c.2 0 .4-.1.5-.2.3-.3.3-.8 0-1.1l-1.7-1.7c-.3-.3-.8-.3-1.1 0-.3.3-.3.8 0 1.1l1.7 1.7c.2.1.4.2.6.2zm-6.2-3l-1.7 1.7c-.3.3-.3.8 0 1.1.1.1.3.2.5.2s.4-.1.5-.2l1.7-1.7c.3-.3.3-.8 0-1.1-.2-.3-.7-.3-1 0zm4.5-2.6c.2 0 .4-.1.5-.2L24 97c.3-.3.3-.8 0-1.1-.3-.3-.8-.3-1.1 0l-1.7 1.7c-.3.3-.3.8 0 1.1.2.2.4.3.6.3zM4.5 30.7c-2.1 0-3.9 1.7-3.9 3.9 0 2.1 1.7 3.9 3.9 3.9 2.1 0 3.9-1.7 3.9-3.9s-1.8-3.9-3.9-3.9zm0 6.3c-1.3 0-2.4-1.1-2.4-2.4 0-1.3 1.1-2.4 2.4-2.4 1.3 0 2.4 1.1 2.4 2.4 0 1.3-1.1 2.4-2.4 2.4zm79.4-24.5c2.1 0 3.9-1.7 3.9-3.9 0-2.1-1.7-3.9-3.9-3.9-2.1 0-3.9 1.7-3.9 3.9s1.8 3.9 3.9 3.9zm0-6.2c1.3 0 2.4 1.1 2.4 2.4 0 1.3-1.1 2.4-2.4 2.4-1.3 0-2.4-1.1-2.4-2.4 0-1.4 1.1-2.4 2.4-2.4zM69.3 116.4c-2.1 0-3.9 1.7-3.9 3.9 0 2.1 1.7 3.9 3.9 3.9 2.1 0 3.9-1.7 3.9-3.9 0-2.1-1.7-3.9-3.9-3.9zm0 6.3c-1.3 0-2.4-1.1-2.4-2.4 0-1.3 1.1-2.4 2.4-2.4 1.3 0 2.4 1.1 2.4 2.4 0 1.3-1.1 2.4-2.4 2.4zM40.6 6.9H57c.4 0 .8-.3.8-.8s-.4-.7-.8-.7H40.6c-.4 0-.8.3-.8.8s.4.7.8.7zm21.8 0h5.3c.4 0 .8-.3.8-.8s-.3-.8-.8-.8h-5.3c-.4 0-.8.3-.8.8s.4.8.8.8zm6.1 4.9c0-.4-.3-.8-.8-.8H56.3c-.4 0-.8.3-.8.8s.3.8.8.8h11.4c.4-.1.8-.4.8-.8zM47.7 11c-.4 0-.8.3-.8.8s.3.8.8.8h3.7c.4 0 .8-.3.8-.8s-.4-.8-.8-.8h-3.7zm2 110.2H33.3c-.4 0-.8.3-.8.8 0 .4.3.8.8.8h16.4c.4 0 .8-.3.8-.8s-.4-.8-.8-.8zm-21.8 0h-5.3c-.4 0-.8.3-.8.8 0 .4.3.8.8.8h5.3c.4 0 .8-.3.8-.8s-.3-.8-.8-.8zm-6-4.9c0 .4.3.8.8.8h11.4c.4 0 .8-.3.8-.8 0-.4-.3-.8-.8-.8H22.6c-.4.1-.7.4-.7.8zm20.8.8c.4 0 .8-.3.8-.8 0-.4-.3-.8-.8-.8H39c-.4 0-.8.3-.8.8 0 .4.3.8.8.8h3.7zm16.7-33.6c-.8-.7-1.2-1.5-1.2-2.5 0-.4-.3-.8-.8-.8s-.8.3-.8.8c0 1.4.6 2.6 1.7 3.6.9.8 2 1.2 3.2 1.4v2.4c0 .4.3.8.8.8.4 0 .8-.3.8-.8V86c1.2-.1 2.4-.6 3.2-1.4 1.1-1 1.7-2.2 1.7-3.6s-.6-2.6-1.7-3.6c-.9-.8-2-1.2-3.2-1.4v-7c.9.1 1.6.5 2.3 1 .8.7 1.2 1.5 1.2 2.5 0 .4.3.8.8.8.4 0 .8-.3.8-.8 0-1.4-.6-2.6-1.7-3.6-.9-.8-2-1.2-3.2-1.4v-2.4c0-.4-.3-.8-.8-.8-.4 0-.8.3-.8.8v2.4c-1.2.1-2.4.6-3.2 1.4-1.1 1-1.7 2.2-1.7 3.6s.6 2.6 1.7 3.6c.9.8 2 1.2 3.2 1.4v7.1c-.9-.3-1.7-.6-2.3-1.1zm6-5c.8.7 1.2 1.5 1.2 2.5 0 .9-.4 1.8-1.2 2.5-.6.5-1.4.9-2.3 1v-6.9c.9.1 1.7.4 2.3.9zm-6-3.6c-.8-.7-1.2-1.5-1.2-2.5 0-.9.4-1.8 1.2-2.5.6-.5 1.4-.9 2.3-1v6.9c-.9 0-1.7-.4-2.3-.9zm44.9-50.2c.8.7 1.2 1.5 1.2 2.5 0 .4.3.8.8.8.4 0 .8-.3.8-.8 0-1.4-.6-2.6-1.7-3.6-.9-.8-2-1.2-3.2-1.4v-2.4c0-.4-.3-.8-.8-.8-.4 0-.8.3-.8.8v2.4c-1.2.1-2.4.6-3.2 1.4-1.1 1-1.7 2.2-1.7 3.6s.6 2.6 1.7 3.6c.9.8 2 1.2 3.2 1.4v7.1c-.9-.1-1.6-.5-2.3-1-.8-.7-1.2-1.5-1.2-2.5 0-.4-.3-.8-.8-.8-.4 0-.8.3-.8.8 0 1.4.6 2.6 1.7 3.6.9.8 2 1.2 3.2 1.4v2.4c0 .4.3.8.8.8.4 0 .8-.3.8-.8v-2.4c1.2-.1 2.4-.6 3.2-1.4 1.1-1 1.7-2.2 1.7-3.6s-.6-2.6-1.7-3.6c-.9-.8-2-1.2-3.2-1.4v-7.1c.9.1 1.7.5 2.3 1zm-6 4.9c-.8-.7-1.2-1.5-1.2-2.5s.4-1.8 1.2-2.5c.6-.5 1.4-.9 2.3-1v6.9c-.9 0-1.7-.3-2.3-.9zm6 3.7c.8.7 1.2 1.5 1.2 2.5 0 .9-.4 1.8-1.2 2.5-.6.5-1.4.9-2.3 1v-6.9c.9 0 1.7.3 2.3.9zm-96-17.5l-3.1 3.1c-.3.3-.3.8 0 1.1l14.7 14.7-1.4 1.4c-.2.2-.3.5-.2.8.1.3.4.5.7.5h8.9c.4 0 .8-.3.8-.8v-.5l3.8 3.8-3.2 3.2c-.2.2-.3.5-.2.8.1.3.4.5.7.5h17c.4 0 .8-.3.8-.8v-17c0-.3-.2-.6-.5-.7-.3-.1-.6-.1-.8.2l-3.1 3.2L14.6.7c-.3-.3-.8-.3-1.1 0l-9.7 9.7c-.3.3-.3.8 0 1.1l4.5 4.3zm18.9 20.1h-6.4l.6-.6c.3-.3.3-.8 0-1.1L6.7 19.5l3.1-3.1.9-.9 14.7 14.7c.3.3.8.3 1.1 0l.7-.7v6.4zM14.1 2.3l28.5 28.5c.1.1.3.2.5.2s.4-.1.5-.2l2.4-2.4v14.5H31.6l2.4-2.4c.1-.1.2-.3.2-.5s-.1-.4-.2-.5L28.7 34v-6.3c0-.3-.2-.6-.5-.7-.3-.1-.6-.1-.8.2L26 28.6 11.3 13.9c-.3-.3-.8-.3-1.1 0l-.9.9L5.5 11l8.6-8.7z"/><path d="M88.5 106.8h28.3c.4 0 .8-.3.8-.8V47.3c0-.4-.3-.8-.8-.8h-5.5c5-3.3 8.2-9 8.2-15.1 0-10-8.1-18.1-18.1-18.1-10 0-18.1 8.1-18.1 18.1 0 6.2 3.1 11.8 8.2 15.1H8c-.4 0-.8.3-.8.8v23.4c0 .2.1.4.2.5l12.4 12.4 12 12 11 11c.1.1.3.2.5.2H74v4c0 .3.2.6.5.7.3.1.6.1.8-.2l1.8-1.8 17.6 17.6c.1.1.3.2.5.2s.4-.1.5-.2l6-6c.1-.1.2-.3.2-.5s-.1-.4-.2-.5l-13.2-13.3zm-3.8-75.3c0-9.2 7.5-16.6 16.6-16.6 9.2 0 16.6 7.5 16.6 16.6 0 6.5-3.8 12.4-9.8 15.1H94.4c-5.9-2.7-9.7-8.6-9.7-15.1zm15.9 32.2c.9.6 1.9 1.1 3.1 1.2v23.7c-3 .3-5.4 2.7-5.8 5.8H32.7L21.1 82.8V64.9c3-.3 5.4-2.7 5.8-5.8h71c.2 1.9 1.2 3.5 2.7 4.6zm-56.9 41.6l-9.5-9.5h64.4c.4 0 .8-.3.8-.8 0-2.8 2.3-5 5.1-5 .4 0 .8-.3.8-.8V64.1c0-.4-.3-.8-.8-.8-2.8 0-5.1-2.3-5.1-5.1 0-.4-.3-.8-.8-.8H26.2c-.4 0-.8.3-.8.8v.5c-.3 2.6-2.4 4.5-5 4.5-.4 0-.8.3-.8.8v17.1L8.8 70.4V48.1h107.3v57.2H87l-2.8-2.8 1.8-1.8c.2-.2.3-.5.2-.8-.1-.3-.4-.5-.7-.5H74.8c-.4 0-.8.3-.8.8v5.1H43.7zm51.6 20.4L77.6 108c-.1-.1-.3-.2-.5-.2s-.4.1-.5.2l-1 1v-8h8.1l-1 1c-.1.1-.2.3-.2.5s.1.4.2.5l17.6 17.6-5 5.1z"/></svg>